<svg xmlns="http://www.w3.org/2000/svg">
    <symbol id="heart" viewBox="0 0 24 24" fill="none" stroke="currentColor" stroke-width="1.8" stroke-linecap="round" stroke-linejoin="round">
        <path d="M12 20.5s-7.5-4.6-9.4-9.1C1.1 7.9 3.2 4 7 4c2 0 3.5 1.2 5 3 1.5-1.8 3-3 5-3 3.8 0 5.9 3.9 4.4 7.4-1.9 4.5-9.4 9.1-9.4 9.1z"/>
    </symbol>
    <symbol id="eye" viewBox="0 0 24 24" fill="none" stroke="currentColor" stroke-width="1.8" stroke-linecap="round" stroke-linejoin="round">
        <path d="M1.5 12S5.5 4.5 12 4.5 22.5 12 22.5 12 18.5 19.5 12 19.5 1.5 12 1.5 12z"/>
        <circle cx="12" cy="12" r="3"/>
    </symbol>
    <symbol id="play" viewBox="0 0 24 24" fill="none" stroke="currentColor" stroke-width="1.8" stroke-linecap="round" stroke-linejoin="round">
        <circle cx="12" cy="12" r="10.5"/>
        <path d="M10 8.2v7.6l6-3.8z" fill="currentColor"/>
    </symbol>
    <symbol id="pin" viewBox="0 0 24 24" fill="none" stroke="currentColor" stroke-width="1.8" stroke-linecap="round" stroke-linejoin="round">
        <path d="M12 22s7-6.2 7-12a7 7 0 1 0-14 0c0 5.8 7 12 7 12z"/>
        <circle cx="12" cy="10" r="2.5"/>
    </symbol>
    <symbol id="search" viewBox="0 0 24 24" fill="none" stroke="currentColor" stroke-width="2" stroke-linecap="round" stroke-linejoin="round">
        <circle cx="11" cy="11" r="7"/>
        <path d="m20 20-4-4"/>
    </symbol>
    <symbol id="calendar" viewBox="0 0 24 24" fill="none" stroke="currentColor" stroke-width="1.8" stroke-linecap="round" stroke-linejoin="round">
        <rect x="3.5" y="5" width="17" height="15.5" rx="2"/>
        <path d="M3.5 10h17M8 3v4M16 3v4"/>
    </symbol>
    <symbol id="chevron-down" viewBox="0 0 24 24" fill="none" stroke="currentColor" stroke-width="2" stroke-linecap="round" stroke-linejoin="round">
        <path d="m6 9 6 6 6-6"/>
    </symbol>
    <symbol id="chevron-left" viewBox="0 0 24 24" fill="none" stroke="currentColor" stroke-width="2" stroke-linecap="round" stroke-linejoin="round">
        <path d="m15 6-6 6 6 6"/>
    </symbol>
    <symbol id="chevron-right" viewBox="0 0 24 24" fill="none" stroke="currentColor" stroke-width="2" stroke-linecap="round" stroke-linejoin="round">
        <path d="m9 6 6 6-6 6"/>
    </symbol>
    <symbol id="close" viewBox="0 0 24 24" fill="none" stroke="currentColor" stroke-width="2" stroke-linecap="round" stroke-linejoin="round">
        <path d="M6 6l12 12M18 6 6 18"/>
    </symbol>
    <symbol id="whatsapp" viewBox="0 0 24 24" fill="none" stroke="currentColor" stroke-width="1.8" stroke-linecap="round" stroke-linejoin="round">
        <path d="M12 2.5a9.5 9.5 0 0 0-8.2 14.3L2.5 21.5l4.8-1.3A9.5 9.5 0 1 0 12 2.5z"/>
        <path d="M8.9 7.6c.3-.5.6-.5.9-.5h.6c.2 0 .5 0 .7.5l.8 2c.1.2.1.4 0 .6l-.5.7c-.2.2-.2.4 0 .7.9 1.4 1.9 2.4 3.4 3.1.3.1.5.1.7-.1l.7-.9c.2-.3.5-.3.8-.2l1.9.9c.3.1.5.3.5.5 0 .9-.5 1.9-1.5 2.2-1 .3-2.2.3-4.4-.8-2.5-1.2-4.2-3.8-4.5-4.4-.6-1-1-2.3.1-4.3z" fill="currentColor" stroke="none"/>
    </symbol>
    <symbol id="users" viewBox="0 0 24 24" fill="none" stroke="currentColor" stroke-width="1.8" stroke-linecap="round" stroke-linejoin="round">
        <circle cx="9" cy="8" r="3.5"/>
        <path d="M2.5 20c.6-3.5 3.2-5.5 6.5-5.5s5.9 2 6.5 5.5"/>
        <path d="M16 4.7a3.5 3.5 0 0 1 0 6.6M18 14.8c2 .7 3.2 2.5 3.5 5.2"/>
    </symbol>
    <symbol id="gift" viewBox="0 0 24 24" fill="none" stroke="currentColor" stroke-width="1.8" stroke-linecap="round" stroke-linejoin="round">
        <rect x="3" y="8" width="18" height="4" rx="1"/>
        <path d="M5 12v8.5h14V12M12 8v12.5"/>
        <path d="M12 8c-1.5-3.5-5.5-4-5.5-1.5S9.5 8 12 8zM12 8c1.5-3.5 5.5-4 5.5-1.5S14.5 8 12 8z"/>
    </symbol>
    <symbol id="facebook" viewBox="0 0 24 24">
        <path fill="currentColor" d="M14 8h3V4h-3c-2.8 0-4.5 1.8-4.5 4.6V11H7v4h2.5v7h4v-7H17l.5-4h-4V9c0-.6.4-1 1-1z"/>
    </symbol>
    <symbol id="instagram" viewBox="0 0 24 24" fill="none" stroke="currentColor" stroke-width="1.8">
        <rect x="3" y="3" width="18" height="18" rx="5"/>
        <circle cx="12" cy="12" r="4"/>
        <circle cx="17.5" cy="6.5" r="1.1" fill="currentColor" stroke="none"/>
    </symbol>
    <symbol id="tiktok" viewBox="0 0 24 24">
        <path fill="currentColor" d="M16.5 3c.4 2.3 1.9 3.9 4 4.1v3.4c-1.5 0-2.9-.4-4-1.2V15a6 6 0 1 1-6-6h.5v3.5a2.6 2.6 0 1 0 2 2.5V3h3.5z"/>
    </symbol>
</svg>
